<?xml version="1.0" encoding="UTF-8"?>
<svg id="Layer_1" xmlns="http://www.w3.org/2000/svg" version="1.1" viewBox="0 0 215.99 347.33">
  <!-- Generator: Adobe Illustrator 29.5.0, SVG Export Plug-In . SVG Version: 2.1.0 Build 137)  -->
  <defs>
    <style>
      .st0 {
        fill: #4e5059;
      }

      .st1 {
        fill: #edae3b;
      }

      .st2 {
        fill: #fcfae1;
      }
    </style>
  </defs>
  <path class="st1" d="M142.2,249.5s8.43-22.09,15.26-22.09,12.45,14.06,12.85,17.27c.4,3.21,3.21,14.86,6.02,17.27s19.1,18.23,21.69,38.96c.4,3.21-3.61,4.42-14.86-3.21s-19.68-11.25-23.29-12.05c-3.61-.8-25.3-8.43-28.11-8.43s-14.06-7.63-12.05-13.65,12.05-9.24,17.27-11.65l5.22-2.41h0Z"/>
  <ellipse class="st2" cx="138.46" cy="292.72" rx="7.19" ry="10.51" transform="translate(-166.43 183.64) rotate(-45)"/>
  <path class="st1" d="M215.99,310.72s-.74-14.58-9.86-16.29c-3.67-.69,3.67,11.24,5.28,13.08s1.3,3.46,2.94,3.34l1.64-.13h0Z"/>
  <path class="st1" d="M203.99,303.8s4.97,7.45,4.69,10.91c-.28,3.45-.97,2.76-1.79,2.48-.83-.28-2.9-4.14-3.45-5.8-.55-1.66-1.66-4.42-1.38-5.8.28-1.38,1.93-1.79,1.93-1.79h0Z"/>
  <path class="st1" d="M184.81,305.19s13.97,21.15,13.25,30.51c-.14,1.79-1.79,2.35-2.62,1.52-.83-.83-5.11-10.77-7.04-13.25-1.93-2.48-4.97-9.66-6.9-12.29-1.93-2.62-2.35-5.8-1.1-6.49,1.24-.69,4.42,0,4.42,0h-.01Z"/>
  <path class="st1" d="M166.61,303.33s18.12,24.19,18.51,35.69c.07,2.2-1.69,3.07-2.71,2.15s-7.01-12.55-9.46-15.36c-2.45-2.81-6.72-11.22-9.18-14.19-2.47-2.98-3.33-6.8-2.04-7.79,1.29-.98,4.88-.51,4.88-.51h0Z"/>
  <path class="st1" d="M40.89,261.24c-9.7,3.31-18.43,5.09-27.74-.96-4.72-3.07-8.95-6.81-12.69-10.93-.99-9.1-.3-17.4,1.24-24.6,2.38,5.42,5.45,10.6,9.31,15.18,7.52,8.91,17.81,10.42,29.14,10.42,3.62,0,3.86-5.22.22-5.22-10.46,0-19.44-1.13-26.08-9.69-4.61-5.95-7.87-12.78-10.07-19.78,3.73-10.82,8.88-17.8,10.8-19.27.35-.26.82-.63,1.4-1.06-.04,6.95.93,13.99,3.33,20.57,3.88,10.64,13.12,15.3,23.91,18.9,3.45,1.15,5.6-3.61,2.14-4.77-9.97-3.32-18.11-7.21-21.27-17.25-2.21-7.01-2.79-14.41-2.29-21.63,4.45-3.03,10.49-6.78,17.4-10.07-1.59,4.99-2.57,10.15-2.68,15.33-.24,11.09,6.85,18.34,15.8,25.1,2.86,2.16,6.67-1.57,3.8-3.74-8.27-6.24-14.59-12.42-13.89-22.73.39-5.85,1.91-11.6,4.15-17.06,6.28-2.42,13.01-4.2,19.74-4.66-2.4,3.3-4.45,6.81-6.01,10.49-4.32,10.2-.25,19.17,5.78,28.27,1.93,2.91,6.94.66,5-2.26-5.57-8.41-9.31-16.14-4.84-25.47,1.88-3.92,4.32-7.59,7.14-10.99,7.13.48,13.36.93,19.07,1.75-1.78,1.41-3.47,2.91-5.03,4.51-7.88,8.08-7.32,17.68-4.93,28.03.76,3.3,6.37,2.81,5.6-.51-2.21-9.56-2.91-17.91,4.79-25.14,2.15-2.02,4.51-3.86,7-5.53,6.02,1.38,11.63,3.46,17.37,6.79-.82.34-1.64.7-2.44,1.08-10.49,4.99-13.5,14.06-15.05,24.41-.49,3.3,5.03,4.62,5.52,1.3,1.43-9.56,3.84-17.52,13.85-21.77,1.21-.52,2.45-.98,3.71-1.41,2.92,2.08,5.92,4.52,9.08,7.38,1.42,1.29,2.69,2.53,3.86,3.74-9.67,2.24-15.2,9.08-19.96,17.26-1.69,2.9,3.08,5.88,4.78,2.96,4.59-7.88,9.49-14.19,19.25-15.57,10.05,12.8,5.66,20.03,5.02,22.76-.21.88-.83,2.84-1.87,5.29-5.1,5.38-9.53,11.89-9.53,11.89l-5.9,1.2c-4.52.92-12.04,1.65-16.88,4.48-9.14-4.37-17.09-12.5-17.09-12.5l-5.92-.53-1.67,5.22,4.69,7.59s13.65,6.25,16.84,16.51.35,18.66,1.62,22.41c1.27,3.76,5,8.09,8.92,11.61s8.42,4.58,10.34,11.08-3.25,24.72-9.44,27.15c-5.44,2.13-20.34-.97-29.7-3.13,6.9-5.23,9.25-13,10.54-21.67.49-3.3-5.03-4.62-5.52-1.3-1.38,9.25-3.71,16.99-12.93,21.34-5.42-.94-14.02-2.54-23.82-6.61,2.37-.78,4.69-1.68,6.9-2.73,10.49-4.99,13.5-14.06,15.05-24.41.49-3.3-5.03-4.62-5.52-1.3-1.43,9.56-3.84,17.52-13.85,21.77-3.19,1.35-6.54,2.4-9.97,3.2-5.69-2.99-11.61-6.88-17.4-11.98,2.47.02,4.92-.08,7.35-.35,11.84-1.29,18.06-8.75,23.35-17.84,1.69-2.9-3.08-5.88-4.78-2.96-4.89,8.4-10.13,15.01-21.24,15.78-3.46.24-6.96.16-10.46-.17-4.52-4.73-8.9-10.29-12.97-16.84,2.53.89,5.1,1.64,7.71,2.21,11.76,2.56,20.44-2.38,28.84-9.13,2.68-2.15-.76-6.42-3.46-4.26-7.76,6.23-15.2,10.7-26.06,7.89-3.85-1-7.61-2.39-11.22-4.07-3.94-7.59-6.54-14.91-8.1-21.87,3.04,2.7,6.32,5.16,9.82,7.24,10.26,6.1,20.35,4.28,30.85.69,3.35-1.15,1.64-6.2-1.72-5.04l-.03-.02Z"/>
  <path class="st1" d="M110.77,37.29s-15.18-18.13-11.85-24.09c3.33-5.96,18.34-4.02,21.34-2.81s14.54,4.44,18.02,3.15c3.47-1.28,25.22-7.79,44.59.05,3,1.21,2.1,5.31-10.05,11.41-12.14,6.1-19.41,11.7-21.87,14.47-2.46,2.76-19.69,17.98-21.06,20.44-1.37,2.45-13.51,8.56-17.79,3.87-4.28-4.69-2.2-15.02-1.76-20.76l.44-5.73h-.01Z"/>
  <ellipse class="st2" cx="146.68" cy="61.59" rx="10.51" ry="7.19" transform="translate(-11.24 42.38) rotate(-15.84)"/>
  <path class="st1" d="M200.18,2.68s-13.09-6.45-19.03.68c-2.39,2.87,11.6,2.27,13.99,1.76,2.38-.51,3.66.55,4.35-.94,0,0,.69-1.5.69-1.5Z"/>
  <path class="st1" d="M188.3,9.79s8.93-.71,11.81,1.22c2.88,1.92,1.94,2.19,1.3,2.78s-5.03.51-6.74.19c-1.72-.33-4.66-.71-5.74-1.62-1.07-.91-.63-2.56-.63-2.56h0Z"/>
  <path class="st1" d="M180.15,27.22s25.27-1.9,33.1,3.29c1.5,1,1.17,2.71.05,3.03-1.13.32-11.89-.79-15-.31s-10.86-.37-14.09.04c-3.23.41-6.21-.78-6.2-2.2,0-1.42,2.15-3.86,2.15-3.86h0Z"/>
  <path class="st1" d="M169.66,42.2s29.95-4.04,40.18,1.23c1.96,1.01,1.86,2.97.56,3.41-1.3.45-14.37,0-18.02.78-3.65.77-13.07.4-16.87,1.1-3.8.7-7.56-.41-7.79-2.01s1.94-4.51,1.94-4.51h0Z"/>
  <path class="st1" d="M166.78,56.35s30.15-3.03,40.21,2.56c1.93,1.07,1.75,3.02.43,3.42s-14.4-.47-18.08.18-13.1-.04-16.94.54-7.56-.66-7.73-2.27c-.17-1.61,2.11-4.43,2.11-4.43Z"/>
  <path class="st1" d="M165.51,69.51s23.72,5.72,29.28,12.81c1.06,1.36.23,2.84-.9,2.8-1.13-.04-10.64-4.24-13.64-4.72s-9.83-3.55-12.91-4.13c-3.09-.58-5.44-2.55-5-3.85.44-1.31,3.17-2.91,3.17-2.91h0Z"/>
  <path class="st1" d="M71.64,131.48c-1.83,10.08-4.53,18.58-14.36,23.76-4.98,2.63-10.31,4.5-15.73,5.76-8.43-3.57-15.34-8.22-20.88-13.06,5.9.56,11.91.41,17.79-.73,11.44-2.23,17.78-10.48,23.3-20.36,1.76-3.16-2.68-5.91-4.45-2.74-5.1,9.14-10.46,16.43-21.17,18.05-7.44,1.13-14.99.64-22.18-.84-7.63-8.53-11.22-16.42-11.56-18.82-.06-.43-.15-1.03-.25-1.74,6.05,3.42,12.67,6,19.59,7.11,11.18,1.8,19.76-4,28.16-11.67,2.68-2.45-.43-6.65-3.12-4.19-7.76,7.09-15.12,12.3-25.43,10.17-7.19-1.49-13.94-4.58-20-8.53-.48-5.36-.81-12.47-.32-20.1,3.58,3.82,7.61,7.19,12.08,9.81,9.57,5.61,19.35,2.96,29.62-1.57,3.28-1.44,1.88-6.59-1.41-5.14-9.48,4.18-17.96,6.68-26.62,1.06-4.92-3.19-9.2-7.32-12.88-11.93.95-6.66,2.67-13.41,5.55-19.51,1.71,3.7,3.78,7.2,6.23,10.35,6.8,8.74,16.62,9.56,27.5,8.72,3.48-.27,3.96-5.74.46-5.47-10.06.77-18.63.27-24.6-8.18-2.51-3.55-4.52-7.47-6.12-11.59,3.89-5.99,7.32-11.21,10.82-15.8.37,2.24.85,4.44,1.49,6.59,3.22,10.82,11.88,15.01,22.07,17.96,3.26.94,5.56-4.19,2.28-5.14-9.42-2.73-17.06-6.19-19.61-16.44-.72-2.87-1.18-5.82-1.42-8.81,4.14-4.59,8.69-8.47,14.39-11.86-.1.89-.19,1.77-.25,2.66-.76,11.6,5.7,18.65,13.98,25.04,2.64,2.04,6.49-2.14,3.83-4.19-7.65-5.9-13.42-11.89-12.26-22.7.14-1.31.34-2.62.57-3.92,3.24-1.54,6.83-2.97,10.87-4.33,1.82-.61,3.52-1.12,5.14-1.55-2.76,9.54.52,17.69,5.34,25.84,1.71,2.89,6.63.17,4.91-2.73-4.65-7.85-7.77-15.2-4.22-24.4,16.07-2.54,20.25,4.82,22.32,6.71.67.61,2.07,2.11,3.7,4.21,2.21,7.08,5.74,14.12,5.74,14.12l-1.83,5.74c-1.4,4.4-4.43,11.31-4.31,16.92-8.27,5.85-19.24,8.83-19.24,8.83l-3.35,4.91,3.75,4,8.91-.4s12.1-8.87,22.62-6.66c10.51,2.21,16.46,8.79,20.36,9.51,3.9.72,9.5-.42,14.49-2.13,4.98-1.71,8.1-5.12,14.72-3.63,6.61,1.49,20.01,14.88,19.11,21.47-.79,5.79-10.76,17.29-17.21,24.41-1.2-8.58-6.85-14.41-13.79-19.77-2.64-2.04-6.49,2.14-3.83,4.19,7.4,5.71,13.03,11.52,12.33,21.69-3.46,4.28-9.05,11.01-17.38,17.58.48-2.45.82-4.91.98-7.36.76-11.6-5.7-18.65-13.98-25.04-2.64-2.04-6.49,2.14-3.83,4.19,7.65,5.9,13.42,11.89,12.26,22.7-.37,3.44-1.09,6.88-2.06,10.27-5.39,3.51-11.66,6.78-18.94,9.36,1.22-2.14,2.33-4.34,3.28-6.58,4.64-10.97,1.16-20.03-4.2-29.09-1.71-2.89-6.63-.17-4.91,2.73,4.95,8.36,8.17,16.16,3.43,26.24-1.48,3.14-3.25,6.16-5.24,9.05-6.33,1.65-13.33,2.76-21.03,3.12,2.01-1.77,3.92-3.66,5.68-5.65,7.96-9.02,7.88-19.01,6.08-29.63-.57-3.39-5.98-2.46-5.41.95,1.66,9.82,1.94,18.49-5.81,26.6-2.75,2.88-5.79,5.48-9.03,7.82-8.55-.25-16.21-1.56-23.05-3.58,3.84-1.34,7.58-3,11.11-5.05,10.33-5.99,13.65-15.69,15.63-26.6.63-3.49-4.61-4.46-5.24-.95l.04-.04Z"/>
  <ellipse class="st0" cx="153.8" cy="60.24" rx="5.27" ry="4.04" transform="translate(-5.64 17.1) rotate(-6.25)"/>
  <path class="st1" d="M152.81,308.48s17.25,24.92,17.22,36.42c0,2.2-1.8,2.99-2.79,2.03-.99-.96-6.55-12.83-8.9-15.74-2.35-2.91-6.31-11.48-8.67-14.56s-3.08-6.93-1.76-7.86,4.9-.3,4.9-.3h0Z"/>
  <path class="st1" d="M140.68,313.74s6.47,23.53,2.96,31.82c-.67,1.59-2.37,1.58-2.88.57s-1.44-11.36-2.47-14.22c-1.03-2.86-1.65-10.32-2.64-13.3-.99-2.98-.4-5.99.95-6.24,1.36-.24,4.08,1.36,4.08,1.36h0Z"/>
  <ellipse class="st0" cx="139.96" cy="288.54" rx="4.04" ry="5.27" transform="translate(-157.79 169.42) rotate(-42.32)"/>
</svg>