<?xml version="1.0" encoding="UTF-8"?>
<svg id="Layer_1" xmlns="http://www.w3.org/2000/svg" version="1.1" viewBox="0 0 200.95 310.99">
  <!-- Generator: Adobe Illustrator 29.5.0, SVG Export Plug-In . SVG Version: 2.1.0 Build 137)  -->
  <defs>
    <style>
      .st0 {
        fill: #afaf46;
      }

      .st1 {
        fill: #fdfbe2;
      }

      .st2 {
        fill: #33322e;
      }
    </style>
  </defs>
  <path class="st0" d="M143.19,99.53c21.15,17.27,17.9,50.74,8.33,74.41-1.67,4.13-4.61,7.63-8.45,9.88-14.29,8.39-16.95-13.64-21.09-27.88-.96-3.31-2.76-6.31-5.21-8.74-19.97-19.76-10.74-64.15,21.38-50.71,1.82.76,3.51,1.79,5.04,3.03h0Z"/>
  <path class="st0" d="M116.87,81.13c-23.08,47.97-23.79-29.83-8.35-39.74,1.91-1.23,4.48-.07,4.86,2.17,1.14,6.58-.83,14.16,1.2,20.76.04.13.07.27.1.41.93,5.27,5.62,11,2.4,16.04-.08.12-.15.24-.21.37h0Z"/>
  <path class="st0" d="M151.73,222.24c-.37.62-.73,1.24-1.07,1.88-6.9,12.91-7.88-7.95-10.89-13.04-7.76-12-6.69-12.74,4.15-19.9.5-.33,1-.67,1.49-1.02,17.09-12.31,11.51,23.32,6.32,32.09h0Z"/>
  <path class="st0" d="M150.6,234.64c-7.19.97-30.98,104.06-2.13,24.21,2.06-6.08,5.84-24.71,2.13-24.21Z"/>
  <path class="st0" d="M66.79,28.85c.61,4.13-33.23-3.61-41.23-9.64-1.39-1.05-.1-3.22,1.49-2.51,10.98,4.89,35.21,7.05,35.32,7.06,4.45.56,3.57,1.02,4.42,5.08h0Z"/>
  <path class="st1" d="M146.52,56.69c6.69,5.66-16.89,13.12-17.47,7.08,1.57-6.25,11.54-8.54,17.47-7.08Z"/>
  <path class="st1" d="M118.65,2.66c-.14,4.04-8.93,12.55-11.54,7.62-2.2-5.35,10.07-14.95,11.54-7.62Z"/>
  <path class="st1" d="M97.11,132.87c2.93-1.73,2.71-6.05-.37-7.49-7.93-3.7-24.14-8.55-40.17,3.14-22.4,16.34,37.61,6.05,40.46,4.4.03-.02.06-.03.09-.05h-.01Z"/>
  <path class="st1" d="M9.77,88.58c-2.69-2.9-7.55-1.59-8.42,2.27-2.25,9.93-3.77,29.55,13.47,44.89,24.09,21.44-2.4-44.24-4.97-47.07-.03-.03-.05-.06-.08-.08h0Z"/>
  <path class="st1" d="M102.63,151c1.71-2.14.32-5.33-2.4-5.53-7.02-.54-20.6.41-29.36,13.76-12.23,18.66,30.03-6.12,31.71-8.17.02-.02.03-.04.05-.06Z"/>
  <path class="st1" d="M197.75,141.94c2.62-.05,4.12-3.03,2.6-5.16-3.91-5.49-12.94-14.9-28.13-13.15-21.22,2.45,22.92,18.34,25.45,18.31h.08Z"/>
  <path class="st1" d="M191.55,160.14c2.1.2,3.57-2.04,2.55-3.89-2.62-4.75-8.98-13.1-21.28-13.1-17.19,0,16.64,16.76,18.67,16.98h.06Z"/>
  <path class="st1" d="M140.64,297.5c-.66-.83-1.99-.58-2.34.42-1.19,3.37-3.34,10.66-.78,13,.9.83,3.93-5.19,3.93-6.65s-.38-6.17-.77-6.71c0-.02-.03-.04-.04-.06h0Z"/>
  <path class="st1" d="M149.66,285.16c-.66-.83-1.99-.58-2.34.42-1.19,3.37-3.34,10.66-.78,13,.9.83,3.93-5.19,3.93-6.65s-.38-6.17-.77-6.71c0-.02-.03-.04-.04-.06h0Z"/>
  <path class="st0" d="M96.32,19.21c-18.74-.06-34.62,6.94-10.3,17.91.54.24,1.04.55,1.52.9,14.56,10.77,32.45-19.45,8.79-18.81h0ZM86.32,31.67c-2.23-.05-4-1.9-3.95-4.13s1.9-4,4.13-3.95c2.23.05,4,1.9,3.95,4.13s-1.9,4-4.13,3.95Z"/>
  <rect class="st2" x="5.75" y="111.65" width="3.86" height="2.58" rx="1" ry="1" transform="translate(-32.8 7.22) rotate(-17.06)"/>
  <rect class="st2" x="3.07" y="99.89" width="10.32" height="6.88" rx="1" ry="1" transform="translate(-29.95 6.96) rotate(-17.06)"/>
  <rect class="st2" x="9.61" y="110.36" width="3.86" height="2.58" rx="1" ry="1" transform="translate(-32.25 8.3) rotate(-17.06)"/>
  <rect class="st2" x="13.47" y="109.08" width="3.86" height="2.58" rx="1" ry="1" transform="translate(-31.7 9.38) rotate(-17.06)"/>
  <rect class="st2" x="7.03" y="115.52" width="3.86" height="2.58" rx="1" ry="1" transform="translate(-33.87 7.77) rotate(-17.06)"/>
  <rect class="st2" x="10.9" y="114.23" width="3.86" height="2.58" rx="1" ry="1" transform="translate(-33.33 8.85) rotate(-17.06)"/>
  <rect class="st2" x="14.76" y="112.94" width="3.86" height="2.58" rx="1" ry="1" transform="translate(-32.78 9.92) rotate(-17.06)"/>
  <rect class="st2" x="8.32" y="119.38" width="3.86" height="2.58" rx="1" ry="1" transform="translate(-34.95 8.32) rotate(-17.06)"/>
  <rect class="st2" x="12.18" y="118.09" width="3.86" height="2.58" rx="1" ry="1" transform="translate(-34.4 9.39) rotate(-17.06)"/>
  <rect class="st2" x="16.04" y="116.8" width="3.86" height="2.58" rx="1" ry="1" transform="translate(-33.85 10.47) rotate(-17.06)"/>
  <rect class="st2" x="9.62" y="123.24" width="3.86" height="2.58" rx="1" ry="1" transform="translate(-36.03 8.87) rotate(-17.06)"/>
  <rect class="st2" x="13.47" y="121.96" width="3.86" height="2.58" rx="1" ry="1" transform="translate(-35.48 9.94) rotate(-17.06)"/>
  <rect class="st2" x="17.33" y="120.67" width="3.86" height="2.58" rx="1" ry="1" transform="translate(-34.93 11.02) rotate(-17.06)"/>
  <rect class="st0" x="81.09" y="23.19" width="13.25" height="9.58"/>
</svg>