<?xml version="1.0" encoding="UTF-8"?>
<svg id="Layer_1" xmlns="http://www.w3.org/2000/svg" version="1.1" viewBox="0 0 239.25 233.98">
  <!-- Generator: Adobe Illustrator 29.5.0, SVG Export Plug-In . SVG Version: 2.1.0 Build 137)  -->
  <defs>
    <style>
      .st0 {
        fill: #d6d5c1;
      }
    </style>
  </defs>
  <path class="st0" d="M2.11,132.27c2.34-2.17,47.73-48.29,47.73-48.29,0,0,5.2-7.12,9.65-4.89.5.25.88.4,1.22.51-4.42,9.89-8.81,28.12,2.47,51.62,1.32,2.74,3.08,5.45,5.15,8.13l-18.93,9.98,17.18,30.96,33.23,7.19,5.13-18.85c34.58,20.28,76.59,34.14,76.59,34.14l.14-.07,14.37,31.27,30.01-9.26,12.78-17.71.41-28.74-30.15-6.67.04-.11s-19.93-43.3-45.3-75.88l18.34-7.83-11.67-31.93-33.02-12.78-7.6,20.98.23.24c-1.79-.92-3.58-1.75-5.37-2.37-27.61-9.6-45.12-1.71-53.48,4.28-.11-.4-.32-.9-.79-1.65-2.68-4.2,3.87-10.1,3.87-10.1,0,0,41.2-49.9,43.12-52.45,1.92-2.55-1.59-1.95-1.59-1.95,0,0-34.95,40.98-43.77,52.98-8.82,11.99-3.04,13.76-3.04,13.76,0,0,.46.21.97.34-3.03,2.35-4.57,4.23-4.57,4.23,0,0-1.79,2.2-3.8,6.22-.04-.07-.08-.13-.08-.13,0,0-2.35-5.57-13.38,4.44C37.18,91.9,0,130.88,0,130.88c0,0-.24,3.56,2.1,1.39ZM152.65,57.94l-9.9,15.01c-1.02-.86-2.03-1.71-3.05-2.49l9.66-14.66c1.16-1.76,4.45.38,3.29,2.14ZM166.77,59.28l-17.65,19.54c-.94-.93-1.87-1.83-2.82-2.71l17.44-19.3c1.87-2.07,4.91.39,3.03,2.47ZM154.74,84.69c-.87-.97-1.75-1.9-2.63-2.83l15.52-11.71c1.71-1.29,4.35,1.53,2.64,2.83l-15.52,11.71ZM226.25,199.56l-21.54-13.08c-.19-.12-.31-.26-.44-.41l1.06-3.17c.44-.11.92-.08,1.42.23l21.53,13.08c2.16,1.31.12,4.66-2.04,3.35ZM200.49,193.63s-.04-.05-.07-.08l1.62-.79.76-2.28s.09.04.14.08l26,20.73c2.6,2.08.16,5.15-2.45,3.07l-26-20.73ZM193.99,196.69l2.44-1.19c.28.1.55.25.8.52l16.92,18.68c1.69,1.87-1.21,4.51-2.91,2.63l-16.92-18.67c-.58-.64-.6-1.36-.33-1.96ZM85.61,93.66c3.89-6.16,12.03-8,18.19-4.12,6.16,3.89,8,12.03,4.12,18.19-3.88,6.16-12.03,8-18.19,4.12-6.16-3.89-8-12.03-4.12-18.19ZM81.71,175.62l8.97-16.1c1.05.73,2.1,1.47,3.18,2.19l-8.99,16.13c-1.05,1.88-4.21-.35-3.16-2.22ZM67.96,173.61l15.99-19.06c1.02.79,2.05,1.58,3.11,2.37l-16.24,19.36c-1.8,2.14-4.65-.53-2.86-2.66ZM77.15,148.83c.96.87,1.97,1.74,2.98,2.6l-12.57,11.04c-1.58,1.39-4.15-1.57-2.57-2.96l12.16-10.68Z"/>
  <circle class="st0" cx="96.84" cy="100.81" r="7.54"/>
</svg>