<?xml version="1.0" encoding="UTF-8"?>
<svg id="Layer_1" xmlns="http://www.w3.org/2000/svg" version="1.1" viewBox="0 0 239.25 233.98">
  <!-- Generator: Adobe Illustrator 29.5.0, SVG Export Plug-In . SVG Version: 2.1.0 Build 137)  -->
  <defs>
    <style>
      .st0 {
        fill: #d6d5c1;
      }
    </style>
  </defs>
  <path class="st0" d="M239.24,130.88s-37.17-38.98-48.2-48.99c-11.02-10.01-13.38-4.44-13.38-4.44,0,0-.04.06-.08.13-2.02-4.02-3.8-6.22-3.8-6.22,0,0-1.54-1.87-4.57-4.23.51-.13.97-.34.97-.34,0,0,5.78-1.77-3.04-13.76C158.32,41.04,123.37.06,123.37.06c0,0-3.52-.6-1.59,1.95,1.92,2.55,43.12,52.45,43.12,52.45,0,0,6.55,5.9,3.87,10.1-.48.75-.68,1.24-.79,1.65-8.36-5.99-25.87-13.88-53.48-4.28-1.78.62-3.57,1.45-5.37,2.37l.23-.24-7.6-20.98-33.02,12.78-11.67,31.93,18.34,7.83c-25.37,32.58-45.3,75.88-45.3,75.88l.04.11-30.15,6.67.41,28.74,12.78,17.71,30.01,9.26,14.37-31.27.14.07s42.01-13.86,76.59-34.14l5.13,18.85,33.23-7.19,17.18-30.96-18.93-9.98c2.07-2.68,3.83-5.39,5.15-8.13,11.27-23.51,6.89-41.73,2.47-51.62.34-.11.73-.26,1.22-.51,4.45-2.23,9.65,4.89,9.65,4.89,0,0,45.39,46.11,47.73,48.29,2.34,2.17,2.1-1.39,2.1-1.39ZM89.88,55.8l9.66,14.66c-1.02.79-2.04,1.63-3.05,2.49l-9.9-15.01c-1.16-1.76,2.13-3.9,3.29-2.14ZM75.51,56.81l17.44,19.3c-.94.88-1.88,1.78-2.82,2.71l-17.65-19.54c-1.87-2.07,1.16-4.54,3.03-2.47ZM68.99,72.98c-1.72-1.29.93-4.12,2.64-2.83l15.52,11.71c-.88.93-1.76,1.87-2.63,2.83l-15.52-11.71ZM10.97,196.2l21.53-13.08c.5-.3.98-.34,1.42-.23l1.06,3.17c-.13.14-.25.29-.44.41l-21.54,13.08c-2.16,1.31-4.19-2.04-2.04-3.35ZM12.76,214.36c-2.61,2.08-5.05-.99-2.45-3.07l26-20.73s.09-.04.14-.08l.76,2.28,1.62.79s-.04.05-.07.08l-26,20.73ZM44.92,198.65l-16.92,18.67c-1.7,1.87-4.6-.76-2.91-2.63l16.92-18.68c.25-.27.52-.43.8-.52l2.44,1.19c.26.61.25,1.33-.33,1.96ZM149.53,111.84c-6.16,3.89-14.3,2.04-18.19-4.12-3.89-6.16-2.04-14.3,4.12-18.19,6.16-3.89,14.3-2.04,18.19,4.12,3.89,6.16,2.04,14.3-4.12,18.19ZM154.38,177.84l-8.99-16.13c1.08-.72,2.13-1.46,3.18-2.19l8.97,16.1c1.04,1.87-2.12,4.1-3.16,2.22ZM168.43,176.27l-16.24-19.36c1.06-.78,2.1-1.57,3.11-2.37l15.99,19.06c1.79,2.14-1.07,4.81-2.86,2.66ZM174.26,159.51c1.58,1.39-.99,4.35-2.57,2.96l-12.57-11.04c1.01-.86,2.03-1.73,2.98-2.6l12.16,10.68Z"/>
  <circle class="st0" cx="142.41" cy="100.81" r="7.54"/>
</svg>