<?xml version="1.0" encoding="UTF-8"?>
<svg id="Layer_1" xmlns="http://www.w3.org/2000/svg" version="1.1" viewBox="0 0 122.22 216">
  <!-- Generator: Adobe Illustrator 29.5.0, SVG Export Plug-In . SVG Version: 2.1.0 Build 137)  -->
  <defs>
    <style>
      .st0 {
        fill: #afaf46;
      }
    </style>
  </defs>
  <circle class="st0" cx="42.61" cy="18.86" r="3.43"/>
  <circle class="st0" cx="42.47" cy="20.61" r="1.42"/>
  <path class="st0" d="M82.1,69.12c14.69,11.99,12.43,35.24,5.79,51.68-1.16,2.87-3.2,5.3-5.87,6.86-9.93,5.83-11.77-9.47-14.64-19.37-.67-2.3-1.92-4.39-3.62-6.07-13.87-13.73-7.46-44.55,14.85-35.22,1.26.53,2.44,1.24,3.5,2.11h-.01Z"/>
  <path class="st0" d="M63.82,56.34c-16.03,33.32-16.52-20.71-5.8-27.6,1.33-.85,3.11-.05,3.38,1.5.79,4.57-.58,9.84.83,14.42.03.09.05.19.07.28.65,3.66,3.9,7.64,1.67,11.14-.05.08-.1.17-.14.26h-.01Z"/>
  <path class="st0" d="M88.04,154.34c-.26.43-.51.86-.75,1.31-4.79,8.97-5.47-5.52-7.56-9.06-5.39-8.34-4.65-8.85,2.88-13.82.35-.23.7-.47,1.04-.71,11.87-8.55,8,16.19,4.39,22.29h0Z"/>
  <path class="st0" d="M87.25,162.96c-4.99.67-21.52,72.27-1.48,16.82,1.43-4.22,4.06-17.16,1.48-16.82Z"/>
  <path class="st0" d="M29.04,20.03c.42,2.87-23.08-2.51-28.63-6.69-.96-.73-.07-2.23,1.03-1.74,7.63,3.4,24.45,4.89,24.53,4.9,3.09.39,2.48.71,3.07,3.53h0Z"/>
  <path class="st0" d="M84.42,39.36c4.65,3.93-11.73,9.11-12.13,4.91,1.09-4.34,8.02-5.93,12.13-4.91Z"/>
  <path class="st0" d="M65.06,1.84c-.1,2.81-6.2,8.72-8.02,5.29-1.53-3.71,6.99-10.38,8.02-5.29Z"/>
  <path class="st0" d="M55.28,100c.81-2.22-1.2-4.45-3.49-3.87-5.89,1.49-16.74,6-20.23,19.33-4.88,18.63,22.89-13.27,23.7-15.4,0-.02.02-.04.02-.06h0Z"/>
  <path class="st0" d="M64.46,111.29c-.21-1.89-2.46-2.77-3.9-1.53-3.7,3.19-9.89,10.35-7.6,21.2,3.2,15.16,11.69-17.79,11.51-19.62v-.05h0Z"/>
  <path class="st0" d="M120,98.58c1.82-.03,2.86-2.1,1.8-3.59-2.72-3.82-8.99-10.35-19.53-9.13-14.74,1.7,15.92,12.73,17.68,12.72h.05Z"/>
  <path class="st0" d="M115.69,111.21c1.46.14,2.48-1.42,1.77-2.7-1.82-3.3-6.23-9.1-14.78-9.1-11.94,0,11.55,11.64,12.96,11.79h.05Z"/>
  <path class="st0" d="M80.33,206.62c-.46-.58-1.38-.4-1.63.29-.82,2.34-2.32,7.4-.54,9.03.63.57,2.73-3.61,2.73-4.62s-.27-4.28-.53-4.66c0-.01-.02-.03-.03-.04Z"/>
  <path class="st0" d="M86.6,198.05c-.46-.58-1.38-.4-1.63.29-.82,2.34-2.32,7.4-.54,9.03.63.57,2.73-3.61,2.73-4.62s-.27-4.28-.53-4.66c0-.01-.02-.03-.03-.04Z"/>
  <path class="st0" d="M49.55,13.34c-13.01-.04-24.05,4.82-7.16,12.44.37.17.72.38,1.05.62,10.11,7.48,22.54-13.51,6.1-13.07h0ZM42.6,21.99c-1.55-.03-2.78-1.32-2.74-2.87s1.32-2.78,2.87-2.74,2.78,1.32,2.74,2.87c-.03,1.55-1.32,2.78-2.87,2.74Z"/>
</svg>