<?xml version="1.0" encoding="UTF-8"?>
<svg id="Layer_1" xmlns="http://www.w3.org/2000/svg" version="1.1" viewBox="0 0 216.01 291.84">
  <!-- Generator: Adobe Illustrator 29.5.0, SVG Export Plug-In . SVG Version: 2.1.0 Build 137)  -->
  <defs>
    <style>
      .st0 {
        fill: #80cbb7;
      }
    </style>
  </defs>
  <path class="st0" d="M214.9,32.18s-64.17-7.56-82.01-8.37c-17.84-.81-15.75,6.14-15.75,6.14,0,0,0,.09.03.18-4.94-2.17-8.27-2.83-8.27-2.83,0,0-2.86-.55-7.45-.41.36-.51.63-1.06.63-1.06,0,0,3.99-6.06-13.34-10.39C71.41,11.11,7.76,0,7.76,0c0,0-3.71,2.13.02,3.02,3.73.88,79.97,15.45,79.97,15.45,0,0,10.57.44,11.3,6.38.13,1.05.32,1.67.53,2.13-12.3.86-34.52,6.98-52.67,36.97-1.17,1.94-2.19,4.07-3.14,6.29l.03-.4-23.08-13.57L0,93.34l13.65,38.43,22.93-6.8c1.5,49.51,16.22,104.76,16.22,104.76l.12.07-22.74,29.23,22.37,26.23,25.36,6.58,34.81-14.41-10.66-39.89.18-.04s28.2-44.96,44.62-90.15l19.17,13.49,25.2-32.07-7.82-41.75-25.12,5.28c-.13-4.06-.58-7.91-1.46-11.45-7.57-30.34-25.57-43.83-37.23-49.57.23-.36.47-.8.74-1.41,2.4-5.47,12.66-2.88,12.66-2.88,0,0,77.22,7.86,81.05,8.08,3.82.22.88-2.89.88-2.89h-.03ZM19.47,77.12l20.14,6.14c-.34,1.51-.63,3.07-.91,4.64l-20.63-6.29c-2.42-.74-1.02-5.23,1.4-4.49ZM6.96,89.05l30.88,4.48c-.2,1.53-.38,3.08-.53,4.66l-31.26-4.54c-3.32-.48-2.4-5.08.91-4.6ZM13.31,108.98c-2.58.12-2.3-4.51.27-4.63l23.29-1.06c-.1,1.53-.2,3.07-.26,4.63,0,0-23.3,1.06-23.3,1.06ZM54.01,267.21l9.88-28.57c.23-.66.65-1.06,1.14-1.29l3.4,2.12c0,.23,0,.46-.09.71l-9.88,28.57c-.99,2.87-5.44,1.32-4.45-1.54h0ZM69.56,282.61c-.82,3.92-5.42,2.95-4.61-.96l8.15-39.05c0-.07.05-.11.07-.18l2.44,1.52,2.1-.51v.13l-8.15,39.05h0ZM87.25,243.49l-1.34,30.2c-.13,3.03-4.83,2.82-4.7-.21l1.34-30.2c.02-.44.15-.79.34-1.1l3.17-.77c.71.36,1.24,1.04,1.2,2.07h0ZM117.45,83.25c-2.71,8.3-11.65,12.83-19.95,10.12-8.3-2.72-12.83-11.65-10.12-19.95,2.71-8.3,11.65-12.83,19.95-10.12,8.3,2.72,12.83,11.65,10.11,19.95h0ZM172.44,140.51l-20.65-8.02c.45-1.49.86-2.98,1.26-4.46l20.61,8c2.4.93,1.18,5.41-1.22,4.48h0ZM184.22,128.3l-29.82-5.46c.38-1.53.73-3.06,1.06-4.57l29.36,5.37c3.29.6,2.69,5.25-.6,4.65h0ZM176.77,108.35c2.52.07,2.42,4.78-.11,4.7l-20.06-.58c.28-1.57.55-3.14.76-4.68l19.4.56h0Z"/>
  <circle class="st0" cx="102.43" cy="78.5" r="9.05"/>
</svg>