<?xml version="1.0" encoding="UTF-8"?>
<svg id="Layer_1" xmlns="http://www.w3.org/2000/svg" version="1.1" viewBox="0 0 216.01 333.56">
  <!-- Generator: Adobe Illustrator 29.5.0, SVG Export Plug-In . SVG Version: 2.1.0 Build 137)  -->
  <defs>
    <style>
      .st0 {
        fill: #8da0d1;
      }
    </style>
  </defs>
  <path class="st0" d="M49.81,168.34c16.66,45.03,53.49,47.99,53.49,47.99,0,0,35.97,3.4,57.63-43.22,17.27-37.19-8.28-119.5-19.33-151.3-2.84-8.18-8.83-14.88-16.64-18.62h0c-7.86-3.77-16.91-4.22-25.1-1.25l-.09.03c-8.35,3.02-15.1,9.32-18.68,17.45-13.65,31.05-45.45,110.6-31.28,148.92Z"/>
  <path class="st0" d="M63.69,101.96c-1,1.09-2.63,1.67-4.57.93l-49.79-19.16c-4.99-1.92-1.94-8.76,3.05-6.84l49.79,19.16c1.52.59,2.29,1.63,2.49,2.74l2.88-9.45c-.1-.04-.2-.07-.29-.12l-34.94-19.98c-3.51-2,.27-8.5,3.77-6.5l33.7,19.27,6.72-22.01-31.13-29.28L0,81.11l7.67,64.66,43.52-2.84,12.5-40.96h0ZM55.61,117.42l-40.39-7.26c-4.05-.73-1.98-7.84,2.06-7.11l40.39,7.26c4.05.73,1.98,7.84-2.06,7.11Z"/>
  <path class="st0" d="M164.82,145.29l43.52,2.84,7.67-64.66-45.37-50.39-31.13,29.28,6.72,22.01,33.7-19.27c3.5-2,7.27,4.49,3.77,6.5l-34.94,19.98c-.1.06-.2.08-.29.12l2.88,9.45c.2-1.11.97-2.15,2.49-2.74l49.79-19.16c4.99-1.92,8.04,4.92,3.05,6.84l-49.79,19.16c-1.93.74-3.57.17-4.57-.93l12.5,40.96h0ZM158.33,112.68l40.39-7.26c4.04-.73,6.11,6.39,2.06,7.11l-40.39,7.26c-4.04.73-6.11-6.39-2.06-7.11h0Z"/>
  <path class="st0" d="M147.97,184.62c-1.68-5.33-2.03-19.01-.52-26.63-6.69-7.92-11.77-21.46-13.28-37.22-20.04-1.28-40.02-2.33-59.9-4.67-1.1,16.28-6.07,30.29-12.85,38.26.37.89.72,1.62,1.03,2.17,3,5.29,3.57,23.93,1.76,30.44-1.8,6.51-23.47,61.69-24.97,74.02-2.08,17.06-.85,63.22,6.05,60.95,2.1-.69,2.2,1.25,3.58-6.02,1.38-7.27,3.24-27.78,5.37-35.48,2.13-7.69,6.19-23.05,9.55-29.86,1.92-3.9,1.58-7.02,3.74-6.61,5.47,1.03,6.2,25.94,6,33.53-.19,7.59-4.48,41.46-3.59,47.44s3.62,9.93,6.65,8.22c3.02-1.71,6.47-14.14,7.62-18.28,1.15-4.14,8.42-55.54,10.06-61.58,5.31-19.62,19.96-16.77,26.02-1.31,2.29,5.83,10.95,57.09,12.25,61.19s5.18,16.4,8.26,18,5.67-2.44,6.35-8.45c.68-6.01-4.81-39.7-5.28-47.29-.46-7.58-1.57-33.85,3.97-34.32,2.42-.21,3.75,5.22,4.81,7.07,3.79,6.58,8.2,21.88,10.61,29.5,2.41,7.61,5,28.05,6.63,35.26,1.63,7.21,1.67,5.27,3.79,5.89,7.68,2.22,5.82-48.83,3.88-61.13-1.94-12.27-25.56-66.64-27.6-73.08h.01Z"/>
  <circle class="st0" cx="53.97" cy="177.69" r="19.52"/>
  <circle class="st0" cx="157.47" cy="178.31" r="19.52"/>
</svg>