<?xml version="1.0" encoding="UTF-8"?>
<svg id="Layer_1" xmlns="http://www.w3.org/2000/svg" version="1.1" viewBox="0 0 220.39 215.98">
  <!-- Generator: Adobe Illustrator 29.5.0, SVG Export Plug-In . SVG Version: 2.1.0 Build 137)  -->
  <defs>
    <style>
      .st0 {
        fill: #edae3b;
      }
    </style>
  </defs>
  <path class="st0" d="M113.05,61.48s21.26-15.98,19.13-23.36c-2.12-7.38-19.06-9.09-22.66-8.53s-17.06,1.14-20.54-1.15-25.64-14.98-48.85-11.34c-3.6.56-3.65,5.28,8.09,15.06,11.74,9.78,18.27,17.78,20.26,21.44,1.99,3.66,16.98,24.73,17.85,27.77.87,3.04,12.62,12.82,18.5,8.78,5.89-4.04,6.24-15.89,7.22-22.29l.98-6.39h.02Z"/>
  <ellipse class="st0" cx="67.5" cy="78.95" rx="8.08" ry="11.82" transform="translate(-34.26 99.78) rotate(-61.04)"/>
  <path class="st0" d="M23.95.74s15.99-3.73,20.67,5.6c1.88,3.75-13.29-.47-15.77-1.64-2.48-1.17-4.15-.33-4.52-2.15l-.38-1.82h0Z"/>
  <path class="st0" d="M35.15,11.56s-9.6-3.06-13.25-1.68c-3.64,1.37-2.68,1.9-2.13,2.71.56.81,5.38,1.85,7.34,1.93s5.29.42,6.7-.31c1.41-.73,1.34-2.65,1.34-2.65Z"/>
  <path class="st0" d="M39.62,32.73S12.42,24.2,2.52,27.88c-1.9.71-1.98,2.67-.83,3.31s13.23,2.18,16.51,3.49c3.29,1.32,11.99,2.37,15.43,3.64s7,.74,7.36-.82-1.37-4.78-1.37-4.78h0Z"/>
  <path class="st0" d="M47.29,51.82S15.51,39.75,2.96,42.91c-2.41.61-2.79,2.78-1.48,3.6s15.74,3.68,19.54,5.45c3.8,1.78,14.21,3.77,18.2,5.52,3.99,1.74,8.39,1.48,9.05-.21.66-1.7-.97-5.44-.97-5.44h-.01Z"/>
  <path class="st0" d="M46.83,68.04S14.57,57.02,2.14,60.58c-2.38.68-2.69,2.86-1.35,3.64,1.34.77,15.89,3.16,19.76,4.81s14.36,3.31,18.42,4.92c4.05,1.61,8.45,1.21,9.05-.51.6-1.72-1.18-5.4-1.18-5.4h-.01Z"/>
  <path class="st0" d="M44.86,82.79s-27.45.21-35.34,6.55c-1.51,1.22-.98,3.05.27,3.29s12.74-1.92,16.14-1.69c3.41.24,11.67-1.38,15.2-1.22,3.53.15,6.61-1.4,6.46-2.94-.15-1.54-2.73-4-2.73-4h0Z"/>
  <path class="st0" d="M131.86,174.64c-.57,11.51.22,21.51,9.66,29.69,4.78,4.15,10.14,7.56,15.76,10.33,10.14-1.76,18.9-5.09,26.2-8.98-6.6-.89-13.16-2.59-19.3-5.35-11.96-5.36-16.8-16.01-20.32-28.26-1.13-3.91,4.44-5.79,5.58-1.86,3.26,11.31,7.26,20.67,18.58,25.18,7.86,3.14,16.26,4.53,24.51,4.74,10.54-7.4,16.48-15.13,17.47-17.67.18-.46.43-1.09.72-1.84-7.5,2.2-15.41,3.34-23.28,2.79-12.7-.88-20.62-9.43-27.86-19.97-2.31-3.37,2.17-7.18,4.49-3.79,6.69,9.74,13.42,17.33,25.26,17.63,8.26.21,16.44-1.46,24.09-4.24,1.89-5.75,4.07-13.45,5.48-21.94-4.9,3.27-10.17,5.93-15.74,7.66-11.91,3.7-21.96-1.7-32.04-9.28-3.22-2.42-.37-7.7,2.86-5.27,9.32,7,17.96,11.91,28.89,7.95,6.2-2.24,11.95-5.67,17.15-9.78.66-7.54.5-15.37-1.1-22.79-2.82,3.62-5.98,6.92-9.47,9.75-9.68,7.84-20.64,6.23-32.35,2.53-3.74-1.18-2.87-7.29.89-6.11,10.82,3.41,20.34,5.05,29.04-2.68,3.65-3.24,6.86-7.02,9.66-11.13-2.73-7.56-5.16-14.15-7.82-20.07-.97,2.36-2.07,4.65-3.31,6.83-6.29,11.03-16.84,13.41-28.77,14.04-3.81.2-5.02-6.01-1.19-6.21,11.02-.59,20.26-2.42,25.68-12.99,1.51-2.96,2.77-6.07,3.81-9.29-3.37-6.08-7.35-11.5-12.74-16.67-.12,1-.25,1.99-.41,2.97-2.13,12.89-11.01,18.97-21.71,23.85-3.42,1.56-6.56-4-3.13-5.56,9.89-4.51,17.74-9.6,19.23-21.74.18-1.47.3-2.95.37-4.44-3.16-2.51-6.73-5-10.8-7.52-1.83-1.13-3.57-2.12-5.24-3.01.59,11.15-5.09,19.25-12.45,26.94-2.61,2.73-7.31-1.5-4.69-4.25,7.1-7.41,12.39-14.67,10.85-25.65-16.96-6.89-23.42.11-26.16,1.65-.89.5-2.81,1.78-5.13,3.67-4.23,7.19-9.9,13.99-9.9,13.99l.54,6.75c.41,5.18,1.96,13.52.4,19.64,7.57,8.52,18.82,14.58,18.82,14.58l2.42,6.24-5.13,3.42-9.66-2.71s-10.99-12.81-23.07-13.07c-12.08-.26-20.28,5.42-24.73,5.22-4.46-.21-10.3-2.89-15.32-6.04-5.02-3.15-7.57-7.68-15.19-7.74-7.63-.06-25.71,11.19-26.41,18.64-.62,6.55,7.37,21.69,12.62,31.13,3.51-9.09,11.18-14.03,20.15-18.13,3.42-1.56,6.56,4,3.13,5.56-9.57,4.37-17.22,9.29-19.05,20.61,2.7,5.57,7.1,14.37,14.55,23.7.1-2.81.36-5.59.81-8.31,2.13-12.89,11.01-18.97,21.71-23.85,3.42-1.56,6.56,4,3.13,5.56-9.89,4.51-17.74,9.6-19.23,21.74-.47,3.87-.57,7.81-.36,11.78,5,5.22,11.04,10.41,18.35,15.09-.79-2.66-1.44-5.35-1.91-8.05-2.28-13.2,3.85-22.24,12.03-30.79,2.61-2.73,7.31,1.5,4.69,4.25-7.56,7.9-13.08,15.62-10.46,27.86.82,3.82,1.99,7.58,3.43,11.25,6.52,3.42,13.89,6.42,22.24,8.78-1.75-2.46-3.36-5-4.78-7.64-6.42-11.92-3.78-22.83.9-34.01,1.5-3.57,7.18-1.17,5.68,2.42-4.33,10.33-6.84,19.75-.43,30.62,2.28,3.86,4.95,7.48,7.89,10.87,9.42,1.91,18.15,2.43,26.16,1.96-3.87-2.45-7.54-5.22-10.88-8.36-9.78-9.19-10.95-20.67-10.33-33.13.2-3.98,6.19-3.7,5.99.3h-.02Z"/>
</svg>