<?xml version="1.0" encoding="UTF-8"?>
<svg id="Layer_1" xmlns="http://www.w3.org/2000/svg" version="1.1" viewBox="0 0 264.96 239.36">
  <!-- Generator: Adobe Illustrator 29.5.0, SVG Export Plug-In . SVG Version: 2.1.0 Build 137)  -->
  <defs>
    <style>
      .st0 {
        fill: #d6d5c1;
      }
    </style>
  </defs>
  <path class="st0" d="M83.75,110.75s-14.64-26.77-23.37-25.58c-8.73,1.19-13.47,20.14-13.42,24.32.05,4.18-1.52,19.56-4.69,23.13-3.17,3.57-21.24,26.64-20.93,53.59.05,4.18,5.39,5.02,18.44-6.7,13.05-11.72,23.2-17.81,27.68-19.47,4.48-1.66,30.88-15.2,34.47-15.69,3.59-.49,16.64-12.21,13.02-19.56-3.62-7.35-17.02-9.71-24.11-11.88l-7.1-2.17Z"/>
  <ellipse class="st0" cx="96.06" cy="165.35" rx="13.57" ry="9.27" transform="translate(-93.71 141.8) rotate(-52.77)"/>
  <path class="st0" d="M.08,201.9s-1.59-18.77,9.77-22.55c4.57-1.52-2.73,15.01-4.46,17.64-1.73,2.63-1.06,4.65-3.18,4.78l-2.12.13Z"/>
  <path class="st0" d="M14.21,190.96s-5.05,10.4-4.1,14.76c.96,4.36,1.72,3.36,2.73,2.86,1.01-.5,2.98-5.8,3.4-8.02.42-2.21,1.35-5.94.75-7.65-.59-1.72-2.78-1.96-2.78-1.96Z"/>
  <path class="st0" d="M38.99,189.38s-14.18,29.47-11.62,41.32c.49,2.27,2.7,2.69,3.62,1.48.91-1.2,4.65-14.66,6.69-18.17,2.04-3.51,4.67-13.22,6.68-16.91,2.01-3.69,1.99-7.82.28-8.49-1.71-.67-5.65.77-5.65.77Z"/>
  <path class="st0" d="M61.93,183.83s-18.95,34.09-17.44,48.86c.29,2.83,2.69,3.63,3.84,2.28,1.15-1.35,6.77-17.26,9.41-21.28,2.64-4.02,6.63-15.51,9.27-19.75,2.64-4.24,3.07-9.28,1.25-10.31-1.82-1.03-6.33.21-6.33.21Z"/>
  <path class="st0" d="M80.27,187.03s-17.84,34.81-15.85,49.51c.38,2.82,2.81,3.52,3.91,2.13,1.1-1.39,6.21-17.52,8.72-21.64,2.51-4.12,6.12-15.76,8.62-20.1,2.5-4.34,2.77-9.39.92-10.36-1.85-.96-6.32.45-6.32.45Z"/>
  <path class="st0" d="M96.69,191.69s-4.29,31.2,1.61,41.21c1.13,1.92,3.3,1.62,3.79.24.49-1.38-.08-14.78.75-18.61.83-3.83.36-13.48,1.12-17.46.76-3.98-.5-7.74-2.28-7.82-1.78-.08-4.99,2.44-4.99,2.44Z"/>
  <path class="st0" d="M215.33,108.07c12.98,2.55,24.46,3.3,35.31-6.07,5.5-4.75,10.26-10.27,14.32-16.19-.33-11.81-2.66-22.3-5.87-31.23-2.1,7.35-5.11,14.51-9.25,21.03-8.06,12.7-20.95,16.43-35.44,18.41-4.62.63-5.84-6-1.19-6.64,13.38-1.83,24.66-4.83,31.66-16.94,4.86-8.41,7.83-17.71,9.43-27.04-6.66-13.19-14.46-21.21-17.18-22.76-.49-.28-1.16-.66-1.98-1.12,1.26,8.88,1.25,18.05-.67,26.89-3.1,14.28-14.11,21.86-27.27,28.34-4.2,2.07-7.79-3.64-3.57-5.72,12.17-5.99,21.89-12.38,24.19-25.77,1.6-9.34,1.06-18.91-.84-28.05-6.22-3.1-14.6-6.84-24.01-9.85,2.91,6.1,5.06,12.53,6.1,19.13,2.24,14.14-5.56,24.65-15.82,34.85-3.28,3.26-8.8-.85-5.51-4.12,9.48-9.42,16.49-18.43,13.8-31.49-1.53-7.41-4.47-14.5-8.28-21.09-8.45-2-17.37-3.11-26.05-2.51,3.64,3.8,6.87,7.93,9.51,12.36,7.3,12.29,3.66,24.47-2.46,37.15-1.96,4.05-8.75,2.05-6.79-2.02,5.66-11.72,9.09-22.26,1.75-33.41-3.08-4.68-6.84-8.95-11.04-12.81-9.03,1.86-16.92,3.52-24.08,5.56,2.52,1.5,4.94,3.12,7.21,4.89,11.49,8.96,12.44,21.33,11.19,34.98-.4,4.36-7.65,4.7-7.25.33,1.15-12.6.59-23.41-10.52-31.3-3.11-2.21-6.43-4.15-9.92-5.86-7.46,2.82-14.27,6.45-21.02,11.71,1.11.3,2.22.61,3.31.95,14.29,4.55,19.72,15.63,23.5,28.58,1.21,4.14-5.62,6.79-6.83,2.63-3.49-11.97-7.97-21.73-21.51-25.42-1.64-.45-3.31-.82-4.98-1.16-3.37,3.17-6.79,6.81-10.32,11.02-1.59,1.9-3,3.71-4.28,5.45,12.76,1.17,21.02,8.95,28.53,18.58,2.67,3.42-2.91,8.05-5.59,4.62-7.24-9.28-14.61-16.49-27.34-16.55-10.62,18.12-3.74,26.6-2.44,29.98.42,1.09,1.56,3.48,3.32,6.43,7.47,5.99,14.26,13.55,14.26,13.55l7.75.5c5.94.39,15.68,0,22.36,2.79,10.93-7.18,19.66-18.97,19.66-18.97l7.48-1.72,3.04,6.39-4.67,10.52s-16.36,10.37-18.65,24.04c-2.29,13.67,2.81,23.92,1.84,28.94-.97,5.03-4.98,11.22-9.38,16.4-4.4,5.18-9.97,7.33-11.29,15.98-1.32,8.65,8.46,31.04,16.8,33.07,7.33,1.78,25.84-4.79,37.43-9.19-9.74-5.48-14.09-15.01-17.26-25.87-1.21-4.14,5.62-6.79,6.83-2.63,3.38,11.58,7.71,21.08,20.26,25.03,6.77-2.15,17.49-5.69,29.31-12.61-3.17-.58-6.28-1.33-9.3-2.29-14.29-4.55-19.72-15.63-23.5-28.58-1.21-4.14,5.62-6.79,6.83-2.63,3.49,11.97,7.97,21.73,21.51,25.42,4.31,1.18,8.78,1.93,13.31,2.36,6.76-4.82,13.64-10.82,20.16-18.35-3.15.46-6.31.75-9.45.84-15.37.41-24.62-8.04-32.97-18.74-2.67-3.42,2.91-8.05,5.59-4.62,7.72,9.89,15.57,17.43,29.91,16.47,4.47-.3,8.93-1.01,13.34-2.04,4.96-6.84,9.59-14.72,13.64-23.8-3.08,1.58-6.24,2.99-9.47,4.17-14.59,5.32-26.55.52-38.47-6.64-3.81-2.29-.14-8.35,3.68-6.05,11.01,6.62,21.3,11.03,34.7,5.54,4.75-1.95,9.31-4.38,13.64-7.16,3.72-10.39,5.76-20.21,6.54-29.38-3.42,3.99-7.18,7.7-11.29,10.97-12.05,9.59-25.28,9.02-39.32,6.26-4.49-.88-3.18-7.63,1.32-6.75Z"/>
</svg>