<?xml version="1.0" encoding="UTF-8"?>
<svg id="Layer_1" xmlns="http://www.w3.org/2000/svg" version="1.1" viewBox="0 0 216.01 97.01">
  <!-- Generator: Adobe Illustrator 29.5.0, SVG Export Plug-In . SVG Version: 2.1.0 Build 137)  -->
  <defs>
    <style>
      .st0 {
        fill: #8da0d1;
      }
    </style>
  </defs>
  <path class="st0" d="M38.67,97.01h21.17c4.88-2.7,10.37-7.68,14.65-16.89,7.99-17.21-3.83-55.3-8.94-70.02-1.32-3.79-4.09-6.88-7.7-8.62-3.64-1.74-7.82-1.95-11.62-.58l-.04.02c-3.86,1.4-6.99,4.31-8.64,8.07-6.32,14.37-21.03,51.18-14.47,68.91,3.94,10.65,10.31,16.2,15.61,19.1h-.02Z"/>
  <path class="st0" d="M29.49,47.19c-.46.51-1.22.77-2.11.43l-23.04-8.87c-2.31-.89-.9-4.05,1.41-3.16l23.04,8.87c.7.27,1.06.75,1.15,1.27l1.33-4.37s-.09-.03-.14-.06l-16.17-9.24c-1.62-.93.12-3.93,1.74-3.01l15.6,8.92,3.11-10.19-14.41-13.55L0,37.55l3.55,29.92,20.14-1.31,5.79-18.95v-.02ZM25.75,54.34l-18.69-3.36c-1.87-.34-.92-3.63.95-3.29l18.69,3.36c1.87.34.92,3.63-.95,3.29Z"/>
  <path class="st0" d="M29.73,86.53c-.31,1.12-1.88,5.33-3.78,10.48h47.18c-2.29-5.63-4.27-10.37-4.65-11.57-.78-2.47-.94-8.8-.24-12.32-3.1-3.66-5.45-9.93-6.14-17.23-9.27-.59-18.52-1.08-27.72-2.16-.51,7.53-2.81,14.02-5.95,17.7.17.41.33.75.47,1,1.39,2.45,1.65,11.08.81,14.09h.02Z"/>
  <circle class="st0" cx="28.84" cy="81.22" r="3.25"/>
  <path class="st0" d="M76.28,67.24l20.14,1.31,3.55-29.92-21-23.32-14.41,13.55,3.11,10.19,15.6-8.92c1.62-.93,3.37,2.08,1.74,3.01l-16.17,9.24s-.09.04-.14.06l1.33,4.37c.09-.51.45-1,1.15-1.27l23.04-8.87c2.31-.89,3.72,2.28,1.41,3.16l-23.04,8.87c-.9.34-1.65.08-2.11-.43l5.79,18.95v.02ZM73.28,52.15l18.69-3.36c1.87-.34,2.83,2.95.95,3.29l-18.69,3.36c-1.87.34-2.83-2.95-.95-3.29Z"/>
  <g>
    <path class="st0" d="M117.47,19.46h12.35v18.87h4.26l12.42-18.87h14.34l-15.92,24.23,16.75,24.71h-14.41l-13.18-19.49h-4.26v19.49h-12.35V19.46h0Z"/>
    <path class="st0" d="M216.01,19.46v48.94h-12.35v-28.48l-10.71,16.88h-4.32l-10.71-16.95v28.55h-12.35V19.46h11.94l13.31,21,13.25-21h11.94Z"/>
  </g>
</svg>