<?xml version="1.0" encoding="UTF-8" standalone="no"?><!DOCTYPE svg PUBLIC "-//W3C//DTD SVG 1.1//EN" "http://www.w3.org/Graphics/SVG/1.1/DTD/svg11.dtd"><svg width="100%" height="100%" viewBox="0 0 792 3427" version="1.1" xmlns="http://www.w3.org/2000/svg" xmlns:xlink="http://www.w3.org/1999/xlink" xml:space="preserve" xmlns:serif="http://www.serif.com/" style="fill-rule:evenodd;clip-rule:evenodd;stroke-linejoin:round;stroke-miterlimit:2;"><rect id="Artboard1" x="0" y="0" width="792" height="3427" style="fill:none;"/><g><path d="M576.646,387.061l-0,-202.125l-374.325,0l0,94.5l130.2,0l0,107.625c0,63 31.5,95.025 92.925,95.025l58.275,0c61.425,0 92.925,-32.025 92.925,-95.025Zm-135.975,0.525c-20.475,0 -27.825,-7.35 -27.825,-28.875l0,-79.275l83.475,0l0,79.275c0,21.525 -6.825,28.875 -27.825,28.875l-27.825,0Z" style="fill:#eadfcb;fill-rule:nonzero;"/><path d="M581.896,758.758l0,-118.125c0,-63 -31.5,-95.025 -92.925,-95.025l-198.975,0c-61.425,0 -92.925,32.025 -92.925,95.025l0,118.125c0,63 31.5,95.025 92.925,95.025l198.975,0c61.425,0 92.925,-32.025 92.925,-95.025Zm-108.15,0.525l-168.525,0c-20.475,0 -27.825,-7.35 -27.825,-28.875l-0,-61.425c0,-21.525 7.35,-28.875 27.825,-28.875l168.525,0c21,0 27.825,7.35 27.825,28.875l0,61.425c0,21.525 -6.825,28.875 -27.825,28.875Z" style="fill:#eadfcb;fill-rule:nonzero;"/><path d="M202.321,1168.78l0,110.25l138.6,-94.5c11.55,36.225 40.425,54.075 86.625,54.075l56.175,0c61.425,0 92.925,-32.025 92.925,-95.55l0,-203.175l-374.325,0l0,94.5l132.825,0l0,43.05l-132.825,91.35Zm294,-134.4l0,80.325c0,22.05 -6.825,29.4 -27.825,29.4l-25.725,0c-20.475,0 -27.3,-7.35 -27.3,-29.4l0,-80.325l80.85,0Z" style="fill:#eadfcb;fill-rule:nonzero;"/><path d="M576.646,1598.752l0,-307.65l-80.325,0l0,106.575l-294,0l0,94.5l294,0l0,106.575l80.325,0Z" style="fill:#eadfcb;fill-rule:nonzero;"/><path d="M496.321,1929.499l80.325,0l0,-265.65l-374.325,0l0,94.5l139.65,0l0,149.1l80.325,0l0,-149.1l74.025,0l0,171.15Z" style="fill:#eadfcb;fill-rule:nonzero;"/><path d="M581.896,2208.796l0,-118.125c0,-63 -31.5,-95.025 -92.925,-95.025l-198.975,0c-61.425,0 -92.925,32.025 -92.925,95.025l0,118.125c0,63 31.5,95.025 92.925,95.025l198.975,0c61.425,0 92.925,-32.025 92.925,-95.025Zm-108.15,0.525l-168.525,0c-20.475,0 -27.825,-7.35 -27.825,-28.875l0,-61.425c0,-21.525 7.35,-28.875 27.825,-28.875l168.525,0c21,0 27.825,7.35 27.825,28.875l0,61.425c0,21.525 -6.825,28.875 -27.825,28.875Z" style="fill:#eadfcb;fill-rule:nonzero;"/><path d="M282.646,2484.418l294,0l0,-94.5l-374.325,0l0,259.875l80.325,0l-0,-165.375Z" style="fill:#eadfcb;fill-rule:nonzero;"/><path d="M202.321,2715.415l0,94.5l374.325,0l0,-94.5l-374.325,0Z" style="fill:#eadfcb;fill-rule:nonzero;"/><path d="M581.896,3109.162l-0,-118.125c0,-63 -31.5,-95.025 -92.925,-95.025l-198.975,0c-61.425,0 -92.925,32.025 -92.925,95.025l0,118.125c0,63 31.5,95.025 92.925,95.025l198.975,0c61.425,0 92.925,-32.025 92.925,-95.025Zm-108.15,0.525l-168.525,0c-20.475,0 -27.825,-7.35 -27.825,-28.875l0,-61.425c0,-21.525 7.35,-28.875 27.825,-28.875l168.525,0c21,0 27.825,7.35 27.825,28.875l0,61.425c0,21.525 -6.825,28.875 -27.825,28.875Z" style="fill:#eadfcb;fill-rule:nonzero;"/></g></svg>