<?xml version="1.0" encoding="UTF-8"?>
<svg id="Layer_1" xmlns="http://www.w3.org/2000/svg" version="1.1" viewBox="0 0 217.77 239.36">
  <!-- Generator: Adobe Illustrator 29.5.0, SVG Export Plug-In . SVG Version: 2.1.0 Build 137)  -->
  <defs>
    <style>
      .st0 {
        fill: #d6d5c1;
      }
    </style>
  </defs>
  <circle class="st0" cx="53.03" cy="34.6" r="4.47"/>
  <circle class="st0" cx="53.95" cy="36.69" r="1.85"/>
  <path class="st0" d="M129.33,68.12c24.26,4.76,35.95,32.88,38.42,55.87.43,4.01-.42,8.06-2.53,11.5-7.83,12.8-19.36-3.65-28.74-13.27-2.18-2.23-4.9-3.86-7.89-4.75-24.38-7.26-35.96-46.64-4.57-49.62,1.78-.17,3.57-.07,5.32.27Z"/>
  <path class="st0" d="M100.47,64.66c2.05,48.16-31.73-13.66-23.63-28.17,1-1.8,3.54-1.97,4.81-.35,3.72,4.77,5.38,11.66,9.82,16.06.09.09.17.18.25.28,2.99,3.81,9.18,6.38,8.77,11.78,0,.13-.01.26,0,.38Z"/>
  <path class="st0" d="M188.54,162.46c-.03.65-.05,1.31-.05,1.96,0,13.26-9.69-2.98-14.26-5.77-11.32-6.27-10.78-7.32-5.18-17.67.26-.48.51-.96.75-1.45,8.39-17.12,19.15,13.71,18.74,22.93Z"/>
  <path class="st0" d="M192.93,172.85c-5.33,3.84,19.68,96.32,8.63,20.25-.95-5.73-5.88-22.23-8.63-20.25Z"/>
  <path class="st0" d="M38.15,44.29c2.25,3.04-28.08,11.3-37.04,9.9-1.56-.24-1.45-2.53.12-2.64,10.86-.78,31.12-9.4,31.22-9.44,3.79-1.46,3.29-.71,5.7,2.17Z"/>
  <path class="st0" d="M113.71,32.48c7.76,1.66-7.89,17.69-10.93,13.11-1.42-5.66,5.57-11.75,10.93-13.11Z"/>
  <path class="st0" d="M68.39,1.23c1.61,3.29-1.77,13.83-5.96,11.01-4.04-3.33,1.66-16.24,5.96-11.01Z"/>
  <path class="st0" d="M117.48,120.11c-.43-3.05-4.11-4.38-6.39-2.3-5.86,5.33-15.56,17.2-11.38,34.67,5.84,24.42,18.17-29.32,17.78-32.28,0-.03,0-.06-.01-.09Z"/>
  <path class="st0" d="M134.96,127.45c-1.41-2.04-4.53-1.67-5.43.64-2.3,5.95-5.01,17.98,4.29,29.04,13,15.47,2.51-27.64,1.18-29.63-.01-.02-.03-.04-.04-.06Z"/>
  <path class="st0" d="M191.01,78.69c2.07-1.16,1.99-4.17-.13-5.23-5.47-2.72-16.7-6.38-28.07,1.5-15.9,11.01,26.13,4.86,28.15,3.76.02-.01.04-.02.06-.03Z"/>
  <path class="st0" d="M193.83,95.87c1.76-.74,1.98-3.15.38-4.19-4.12-2.68-12.76-6.63-22.58-1.38-13.72,7.34,20.44,6.28,22.15,5.59.02,0,.03-.01.05-.02Z"/>
  <path class="st0" d="M211.81,227.3c-.88-.38-1.83.39-1.69,1.34.49,3.2,1.88,9.94,4.93,10.71,1.07.27.92-5.82.3-6.99s-2.94-4.76-3.48-5.03c-.02,0-.04-.02-.06-.03Z"/>
  <path class="st0" d="M213.74,213.59c-.88-.38-1.83.39-1.69,1.34.49,3.2,1.88,9.94,4.93,10.71,1.07.27.92-5.82.3-6.99s-2.94-4.76-3.48-5.03c-.02,0-.04-.02-.06-.03Z"/>
  <path class="st0" d="M57.62,23.98c-14.99,7.95-24.69,20.32-.58,18.7.53-.04,1.07,0,1.6.07,16.22,2.39,17.61-29.39-1.01-18.77ZM54.95,38.2c-1.8.91-4.01.19-4.92-1.61s-.19-4.01,1.61-4.92,4.01-.19,4.92,1.61c.91,1.8.19,4.01-1.61,4.92Z"/>
</svg>