<?xml version="1.0" encoding="UTF-8"?>
<svg id="Layer_1" xmlns="http://www.w3.org/2000/svg" version="1.1" viewBox="0 0 215.99 255.13">
  <!-- Generator: Adobe Illustrator 29.5.0, SVG Export Plug-In . SVG Version: 2.1.0 Build 137)  -->
  <defs>
    <style>
      .st0 {
        fill: #afaf46;
      }
    </style>
  </defs>
  <path class="st0" d="M141.87,179.57c-42.51,88.36-43.82-54.94-15.39-73.2,3.52-2.26,8.24-.14,8.96,3.99,2.09,12.13-1.53,26.08,2.21,38.23.08.25.13.49.18.75,1.71,9.7,10.35,20.26,4.43,29.55-.14.22-.27.44-.38.68h0Z"/>
  <path class="st0" d="M59.92,54.17C57.47,61.46,8.39,20.47.3,3.9-1.11,1.02,2.82-1.46,4.84,1.02c13.94,17.21,51.91,40.99,52.08,41.11,6.84,4.63,5.01,4.66,3,12.04Z"/>
  <path class="st0" d="M196.49,134.54c12.32,10.42-31.12,24.17-32.18,13.03,2.89-11.52,21.26-15.74,32.18-13.03Z"/>
  <path class="st0" d="M166.94,54.52c-3.61,6.52-25.14,13.14-25.31,2.86.85-10.62,29.02-16.12,25.31-2.86Z"/>
  <path class="st0" d="M116.45,63.02c-30.71-15.76-62.64-17.54-31.88,20.79.68.85,1.25,1.77,1.74,2.74,14.9,29.84,69.52-4.82,30.14-23.54h0ZM89.62,75.12c-3.62-1.95-4.98-6.46-3.03-10.09,1.95-3.62,6.46-4.98,10.09-3.03,3.62,1.95,4.98,6.46,3.03,10.09-1.95,3.62-6.46,4.98-10.09,3.03Z"/>
  <path class="st0" d="M190.34,213.46c-2.81-2.29-5.93-4.19-9.28-5.59-39.34-16.47-60,14.18-58.64,47.26h93.57c-4.11-16.13-12.19-30.68-25.65-41.67h0Z"/>
  <rect class="st0" x="85.21" y="59.13" width="20.53" height="22.04"/>
</svg>