<?xml version="1.0" encoding="UTF-8"?>
<svg id="Layer_1" xmlns="http://www.w3.org/2000/svg" version="1.1" viewBox="0 0 155 239.36">
  <!-- Generator: Adobe Illustrator 29.5.0, SVG Export Plug-In . SVG Version: 2.1.0 Build 137)  -->
  <defs>
    <style>
      .st0 {
        fill: #d6d5c1;
      }
    </style>
  </defs>
  <path class="st0" d="M35.74,120.8c11.95,32.31,38.39,34.44,38.39,34.44,0,0,25.82,2.44,41.35-31.01,12.39-26.68-5.94-85.76-13.87-108.57-2.04-5.87-6.34-10.68-11.94-13.36h0c-5.64-2.7-12.13-3.03-18.02-.9l-.07.02c-5.99,2.17-10.84,6.69-13.4,12.52-9.8,22.28-32.61,79.37-22.44,106.86Z"/>
  <path class="st0" d="M45.7,73.16c-.71.78-1.89,1.2-3.28.67L6.7,60.08c-3.58-1.38-1.39-6.29,2.19-4.91l35.73,13.75c1.09.42,1.64,1.17,1.78,1.96l2.07-6.78c-.07-.03-.14-.05-.21-.09l-25.07-14.33c-2.52-1.44.19-6.1,2.7-4.66l24.19,13.83,4.82-15.8-22.34-21.01L0,58.19l5.5,46.4,31.23-2.04,8.97-29.39ZM39.91,84.25l-28.98-5.21c-2.91-.52-1.42-5.63,1.48-5.1l28.98,5.21c2.91.52,1.42,5.63-1.48,5.1Z"/>
  <path class="st0" d="M118.27,104.26l31.23,2.04,5.5-46.4-32.56-36.16-22.34,21.01,4.82,15.8,24.19-13.83c2.51-1.44,5.22,3.22,2.7,4.66l-25.07,14.33c-.07.04-.14.06-.21.09l2.07,6.78c.14-.8.69-1.54,1.78-1.96l35.73-13.75c3.58-1.38,5.77,3.53,2.19,4.91l-35.73,13.75c-1.39.53-2.56.12-3.28-.67l8.97,29.39ZM113.62,80.85l28.98-5.21c2.9-.52,4.39,4.58,1.48,5.1l-28.98,5.21c-2.9.52-4.39-4.58-1.48-5.1Z"/>
  <path class="st0" d="M106.18,132.48c-1.21-3.83-1.46-13.64-.37-19.11-4.8-5.68-8.45-15.4-9.53-26.71-14.38-.92-28.72-1.67-42.98-3.35-.79,11.68-4.36,21.73-9.22,27.45.27.64.51,1.16.74,1.56,2.15,3.8,2.56,17.17,1.26,21.85-1.29,4.67-16.84,44.27-17.92,53.12-1.49,12.24-.61,45.37,4.34,43.74,1.51-.5,1.58.9,2.57-4.32.99-5.21,2.32-19.94,3.85-25.46,1.53-5.52,4.44-16.54,6.85-21.43,1.38-2.8,1.13-5.04,2.69-4.74,3.92.74,4.45,18.61,4.31,24.06-.14,5.45-3.21,29.75-2.57,34.05.64,4.29,2.6,7.12,4.77,5.9,2.17-1.23,4.64-10.15,5.47-13.12.82-2.97,6.04-39.86,7.22-44.19,3.81-14.08,14.32-12.03,18.67-.94,1.64,4.18,7.86,40.97,8.79,43.91.93,2.94,3.72,11.77,5.93,12.92,2.21,1.15,4.07-1.75,4.56-6.06.49-4.31-3.45-28.49-3.79-33.93-.33-5.44-1.13-24.29,2.85-24.63,1.73-.15,2.69,3.75,3.45,5.07,2.72,4.72,5.89,15.7,7.61,21.17,1.73,5.46,3.59,20.13,4.76,25.31,1.17,5.18,1.2,3.78,2.72,4.22,5.51,1.6,4.18-35.04,2.78-43.87-1.39-8.8-18.34-47.82-19.8-52.45Z"/>
  <circle class="st0" cx="38.72" cy="127.51" r="14.01"/>
  <circle class="st0" cx="113" cy="127.96" r="14.01"/>
</svg>