<?xml version="1.0" encoding="UTF-8"?>
<svg id="Layer_1" xmlns="http://www.w3.org/2000/svg" version="1.1" viewBox="0 0 577.47 401.05">
  <!-- Generator: Adobe Illustrator 29.5.0, SVG Export Plug-In . SVG Version: 2.1.0 Build 137)  -->
  <defs>
    <style>
      .st0 {
        fill: #ec8c58;
      }

      .st1 {
        fill: #6f6a58;
      }

      .st2 {
        fill: #f6d988;
      }

      .st3 {
        fill: #81c9bb;
      }

      .st4 {
        fill: #abb965;
      }
    </style>
  </defs>
  <path class="st1" d="M239.09,299.21H95.34c-9.65,0-17.48-7.83-17.48-17.48v-135.44c0-9.65-7.83-17.48-17.48-17.48H18.72c-9.65,0-17.48,7.83-17.48,17.48v235.36c0,9.65,7.83,17.48,17.48,17.48h220.37c9.65,0,17.48-7.83,17.48-17.48v-64.96c0-9.65-7.83-17.48-17.48-17.48Z"/>
  <path class="st1" d="M256.68,176.39c0-.07,0-.14,0-.22l-.24-22.89c0-13.68-13.32-24.78-29.75-24.78l-103.12.33c-11.59,0-20.99,7.83-20.99,17.48l1.24,55.73v54.31c0,9.65,9.4,17.48,20.99,17.48l102.12-1c16.43,0,29.75-11.09,29.75-24.78v-22.24c0-12.86-8.82-19.06-16.85-22.04-2.76-1.02-2.79-4.92-.07-6.01,8.03-3.23,16.86-9.48,16.92-21.39Z"/>
  <path class="st1" d="M551.46,127.57h-109.22c-9.65,0-17.48,7.83-17.48,17.48v237.56c0,9.65,7.83,17.48,17.48,17.48h42.51c9.65,0,17.48-7.83,17.48-17.48v-84.8c0-8.76,7.1-15.86,15.86-15.86h33.37c13.68,0,24.78-11.09,24.78-24.78v-104.82c0-13.68-11.09-24.78-24.78-24.78Z"/>
  <path class="st1" d="M560,0H17.48C7.83,0,0,7.83,0,17.48v67.58c0,9.65,7.83,17.48,17.48,17.48h239.46c13.68,0,24.77,11.09,24.77,24.77v256.25c0,9.65,7.83,17.48,17.48,17.48h82.1c9.65,0,17.48-7.83,17.48-17.48V120.02c0-9.65,7.83-17.48,17.48-17.48h143.75c9.65,0,17.48-7.83,17.48-17.48V17.48c0-9.65-7.83-17.48-17.48-17.48Z"/>
  <rect class="st4" x="392.73" y="27.69" width="105.46" height="47.5" rx="17.81" ry="17.81"/>
  <rect class="st2" x="140.53" y="27.69" width="232.14" height="47.5" rx="17.81" ry="17.81"/>
  <rect class="st3" x="495.96" y="186.28" width="41.97" height="68.99" rx="17.81" ry="17.81"/>
  <rect class="st0" x="177.71" y="215.76" width="53.37" height="31.67" rx="13.21" ry="13.21"/>
  <rect class="st0" x="177.71" y="154.98" width="53.37" height="31.67" rx="13.21" ry="13.21"/>
</svg>