<?xml version="1.0" encoding="UTF-8"?>
<svg id="Layer_1" xmlns="http://www.w3.org/2000/svg" version="1.1" viewBox="0 0 2005.04 401.05">
  <!-- Generator: Adobe Illustrator 29.5.0, SVG Export Plug-In . SVG Version: 2.1.0 Build 137)  -->
  <defs>
    <style>
      .st0 {
        fill: #706b59;
      }

      .st1 {
        fill: #ec8c58;
      }

      .st2 {
        fill: #6f6a58;
      }

      .st3 {
        fill: #f6d988;
      }

      .st4 {
        fill: #81c9bb;
      }

      .st5 {
        fill: #abb965;
      }
    </style>
  </defs>
  <path class="st2" d="M239.09,299.21H95.34c-9.65,0-17.48-7.83-17.48-17.48v-135.44c0-9.65-7.83-17.48-17.48-17.48H18.72c-9.65,0-17.48,7.83-17.48,17.48v235.36c0,9.65,7.83,17.48,17.48,17.48h220.37c9.65,0,17.48-7.83,17.48-17.48v-64.96c0-9.65-7.83-17.48-17.48-17.48Z"/>
  <path class="st2" d="M256.68,176.39c0-.07,0-.14,0-.22l-.24-22.89c0-13.68-13.32-24.78-29.75-24.78l-103.12.33c-11.59,0-20.99,7.83-20.99,17.48l1.24,55.73v54.31c0,9.65,9.4,17.48,20.99,17.48l102.12-1c16.43,0,29.75-11.09,29.75-24.78v-22.24c0-12.86-8.82-19.06-16.85-22.04-2.76-1.02-2.79-4.92-.07-6.01,8.03-3.23,16.86-9.48,16.92-21.39Z"/>
  <path class="st2" d="M551.46,127.57h-109.22c-9.65,0-17.48,7.83-17.48,17.48v237.56c0,9.65,7.83,17.48,17.48,17.48h42.51c9.65,0,17.48-7.83,17.48-17.48v-84.8c0-8.76,7.1-15.86,15.86-15.86h33.37c13.68,0,24.78-11.09,24.78-24.78v-104.82c0-13.68-11.09-24.78-24.78-24.78Z"/>
  <path class="st2" d="M560,0H17.48C7.83,0,0,7.83,0,17.48v67.58c0,9.65,7.83,17.48,17.48,17.48h239.46c13.68,0,24.77,11.09,24.77,24.77v256.25c0,9.65,7.83,17.48,17.48,17.48h82.1c9.65,0,17.48-7.83,17.48-17.48V120.02c0-9.65,7.83-17.48,17.48-17.48h143.75c9.65,0,17.48-7.83,17.48-17.48V17.48c0-9.65-7.83-17.48-17.48-17.48Z"/>
  <rect class="st5" x="392.73" y="27.69" width="105.46" height="47.5" rx="17.81" ry="17.81"/>
  <rect class="st3" x="140.53" y="27.69" width="232.14" height="47.5" rx="17.81" ry="17.81"/>
  <rect class="st4" x="495.96" y="186.28" width="41.97" height="68.99" rx="17.81" ry="17.81"/>
  <rect class="st1" x="177.71" y="215.76" width="53.37" height="31.67" rx="13.21" ry="13.21"/>
  <rect class="st1" x="177.71" y="154.98" width="53.37" height="31.67" rx="13.21" ry="13.21"/>
  <g>
    <path class="st0" d="M703.09,134.48h36.61v103.65h39.5v32.26h-76.11v-135.91Z"/>
    <path class="st0" d="M831.93,172.72c10.51,0,18.48,2.54,23.92,8.15h.72c-.18-.54-.36-1.45-.36-2.54v-2.72h33.16v94.77h-33.16v-2.72c0-1.27.18-2.72.36-3.44h-.72c-6.16,6.16-14.86,9.06-25.55,9.06-25.37,0-43.85-20.11-43.85-50.2s19.57-50.38,45.48-50.38ZM854.94,222.55c0-11.42-6.71-18.48-16.13-18.48s-15.95,7.07-15.95,18.48,6.52,19.03,15.95,19.03,16.13-7.43,16.13-19.03Z"/>
    <path class="st0" d="M1006.25,270.39h-56.36v-135.91h53.82c25.91,0,43.49,14.13,43.49,36.97,0,10.51-4.35,22.65-17.21,28.63,14.68,6.89,19.93,20.48,19.93,32.98,0,20.66-17.76,37.33-43.67,37.33ZM986.49,187.58h12.5c7.97,0,11.42-4.89,11.42-10.87,0-6.52-3.62-10.87-10.87-10.87h-13.05v21.75ZM1012.77,227.81c0-5.8-3.44-10.69-11.24-10.69h-15.04v21.56h15.58c7.07,0,10.69-4.89,10.69-10.87Z"/>
    <path class="st0" d="M1113.15,175.62v31.89h-13.05v62.88h-36.24v-94.77h49.29Z"/>
    <path class="st0" d="M1173.13,273.29c-30.99,0-51.46-20.66-51.46-50.2s20.66-50.38,51.1-50.38c27.73,0,46.03,20.11,46.03,49.83,0,3.44-.18,6.71-.91,9.97h-58.71c1.99,6.34,6.7,9.42,15.4,9.42,7.25,0,12.14-1.99,16.67-7.97l20.48,21.75c-9.97,12.87-22.47,17.58-38.6,17.58ZM1159,212.4h24.46c-1.09-5.98-4.89-9.97-11.6-9.97-7.25,0-11.24,3.44-12.87,9.97Z"/>
    <path class="st0" d="M1273.16,172.72c10.51,0,18.48,2.54,23.92,8.15h.72c-.18-.54-.36-1.45-.36-2.54v-2.72h33.16v94.77h-33.16v-2.72c0-1.27.18-2.72.36-3.44h-.72c-6.16,6.16-14.86,9.06-25.55,9.06-25.37,0-43.85-20.11-43.85-50.2s19.57-50.38,45.48-50.38ZM1296.17,222.55c0-11.42-6.71-18.48-16.13-18.48s-15.95,7.07-15.95,18.48,6.52,19.03,15.95,19.03,16.13-7.43,16.13-19.03Z"/>
    <path class="st0" d="M1408.34,166.2h-30.08v-31.71h96.95v31.71h-30.26v104.2h-36.61v-104.2Z"/>
    <path class="st0" d="M1512.71,172.72c10.51,0,18.48,2.54,23.92,8.15h.72c-.18-.54-.36-1.45-.36-2.54v-2.72h33.16v94.77h-33.16v-2.72c0-1.27.18-2.72.36-3.44h-.72c-6.16,6.16-14.86,9.06-25.55,9.06-25.37,0-43.85-20.11-43.85-50.2s19.57-50.38,45.48-50.38ZM1535.73,222.55c0-11.42-6.71-18.48-16.13-18.48s-15.95,7.07-15.95,18.48,6.52,19.03,15.95,19.03,16.13-7.43,16.13-19.03Z"/>
    <path class="st0" d="M1637.56,175.62v31.89h-13.05v62.88h-36.24v-94.77h49.29Z"/>
    <path class="st0" d="M1796.12,180.15c0,25.55-20.12,46.03-47.12,46.03h-20.84v44.22h-36.61v-135.91h57.44c27,0,47.12,20.11,47.12,45.67ZM1759.33,180.51c0-7.61-4.71-14.32-13.95-14.32h-17.21v28.63h17.21c9.24,0,13.95-6.71,13.95-14.32Z"/>
    <path class="st0" d="M1804.63,147.89c0-11.42,9.06-20.66,20.66-20.66s21.02,9.24,21.02,20.66-9.42,20.84-21.02,20.84-20.66-9.24-20.66-20.84ZM1807.35,270.39v-94.77h36.24v94.77h-36.24Z"/>
    <path class="st0" d="M1865.88,206.61h-6.89v-30.99h6.89v-23.01h36.24v23.01h15.22v30.99h-15.22v32.44h12.5v31.35h-48.75v-63.79Z"/>
    <path class="st0" d="M1968.98,207.15l11.78,6.71c9.06,5.07,19.39,11.23,19.39,28.09,0,18.3-13.59,31.35-37.15,31.35s-33.52-11.6-37.51-23.01l23.01-13.41c1.09,2.36,7.07,9.42,14.32,9.42,1.81,0,3.08-1.09,3.08-2.54,0-1.09-.72-2.54-3.26-4.17l-11.96-7.43c-10.33-6.34-21.38-11.96-21.38-29.72,0-15.58,14.13-29.72,33.71-29.72s30.62,9.42,36.42,19.57l-21.56,14.32c-2.36-3.44-8.88-8.88-13.95-8.88-1.99,0-3.08,1.27-3.08,2.72,0,1.99,1.99,3.26,8.16,6.71Z"/>
  </g>
</svg>